# xmcd CD database file
#
# Track frame offsets:
#	182
#	11085
#	24445
#	37667
#	52922
#	65765
#	78682
#	91902
#	106152
#	119312
#	131955
#	146217
#	156537
#	167267
#
# Disc length: 2390 seconds
#
# Revision: 0
# Processed by: cddbd v1.5PL3 Copyright (c) Steve Scherf et al.
# Submitted via: CDex 1.51
#
DISCID=b709540e
DTITLE=Various Artist - Idols
DYEAR=1900
DGENRE=Jazz
TTITLE0=Louis Armstrong - Hello Dolly
TTITLE1=Carmen Miranda - South American Way
TTITLE2=Marlene Dietrich - Falling In Love Again
TTITLE3=Dean Martin - Memories Are Made Of This
TTITLE4=Pat Boone - Friendly Persuasion
TTITLE5=Eartha Kitt - Just An Old Fashioned Girl
TTITLE6=Patsy Cline - I Fall To Pieces
TTITLE7=Brenda Lee - Sweet Nothin's
TTITLE8=Judy Garland - Zing! Went The Strings Of My Heart
TTITLE9=Bing Crosby - Around The World
TTITLE10=Nat King Cole - When I Fall In Love
TTITLE11=Perry Como - Magic Moments
TTITLE12=Harry Belafonte - Island In The Sun
TTITLE13=Billie Holiday - God Bless The Child
EXTD=
EXTT0=
EXTT1=
EXTT2=
EXTT3=
EXTT4=
EXTT5=
EXTT6=
EXTT7=
EXTT8=
EXTT9=
EXTT10=
EXTT11=
EXTT12=
EXTT13=
PLAYORDER=
